/* XPM */
static char *_dbb63ea69be4928f5feec39269a7993oBE0Gw9xDNy29uF8[] = {
/* columns rows colors chars-per-pixel */
"10 10 12 1 ",
"  c None",
". c #B60202",
"X c #B70202",
"o c #CA0101",
"O c #C90202",
"+ c #CA0202",
"@ c #F10000",
"# c #F20000",
"$ c #FB0000",
"% c #FD0000",
"& c #FE0000",
"* c red",
/* pixels */
"    XX    ",
"  o@%%@+  ",
" +%%%%%%+ ",
" @%%%%%%@ ",
"X%%%%%%%$X",
"X%%%%%%%$X",
" @%%%%%%@ ",
" +%%%%%%+ ",
"  +@$$@+  ",
"    XX    "
};
