/* XPM */
static char *aa4447f8515b443be24bf307fa6c28662uivBfUPrQQEqnVB[] = {
/* columns rows colors chars-per-pixel */
"64 64 181 2 ",
"   c #723929",
".  c #7B3B2D",
"X  c #8C3F33",
"o  c #854735",
"O  c #8D4435",
"+  c #85493C",
"@  c #8F4A38",
"#  c #9B4335",
"$  c #9E4739",
"%  c #934939",
"&  c #9B4B3C",
"*  c #A4463A",
"=  c #A54B3D",
"-  c #AA4B3E",
";  c #A6513D",
":  c #AC513E",
">  c #B0513F",
",  c #944D40",
"<  c #9E4E42",
"1  c #8F5749",
"2  c #955244",
"3  c #9C5345",
"4  c #92544D",
"5  c #9F5549",
"6  c #96594F",
"7  c #9B5C4E",
"8  c #A64E40",
"9  c #AB4E41",
"0  c #A45344",
"q  c #AC5244",
"w  c #AC5846",
"e  c #A45549",
"r  c #AB564A",
"t  c #A6594C",
"y  c #AC5A4C",
"u  c #B35445",
"i  c #B95746",
"p  c #B35946",
"a  c #B95947",
"s  c #B35649",
"d  c #B9574A",
"f  c #B45B4C",
"g  c #BB5C4B",
"h  c #A55B52",
"j  c #AD5D51",
"k  c #B55E52",
"l  c #BC5E51",
"z  c #9B6152",
"x  c #AE604E",
"c  c #B5604F",
"v  c #BD614E",
"b  c #A76153",
"n  c #AD6154",
"m  c #A7675A",
"M  c #AA6559",
"N  c #AD6A5B",
"B  c #B56357",
"V  c #B76257",
"C  c #B66255",
"Z  c #B66455",
"A  c #B76654",
"S  c #B46457",
"D  c #B56253",
"F  c #B86153",
"G  c #B86152",
"H  c #BA6153",
"J  c #B96353",
"K  c #BA6253",
"L  c #B86553",
"P  c #B86155",
"I  c #BA6154",
"U  c #B96354",
"Y  c #B96257",
"T  c #BB6356",
"R  c #BD6054",
"E  c #BD6255",
"W  c #BC6255",
"Q  c #BE6155",
"!  c #B86457",
"~  c #BB6557",
"^  c #BE6554",
"/  c #BD6456",
"(  c #BC6354",
")  c #BD6956",
"_  c #B16559",
"`  c #B1655B",
"'  c #B56559",
"]  c #B7655B",
"[  c #B46559",
"{  c #B96559",
"}  c #BB6559",
"|  c #B96659",
" . c #B8655A",
".. c #B9675B",
"X. c #BF6558",
"o. c #BD6759",
"O. c #BF6759",
"+. c #BA675C",
"@. c #BD6659",
"#. c #B1685F",
"$. c #B5685C",
"%. c #B7685C",
"&. c #B56A5D",
"*. c #B86A5B",
"=. c #BC6859",
"-. c #BE6959",
";. c #BC6B5B",
":. c #BF6B5B",
">. c #B8695C",
",. c #BB695C",
"<. c #BB695E",
"1. c #BE6B5D",
"2. c #BF695E",
"3. c #BD6D5C",
"4. c #BE6E5D",
"5. c #BD6A5B",
"6. c #BD705E",
"7. c #B26A62",
"8. c #BD6E61",
"9. c #B37264",
"0. c #BD7163",
"q. c #B77468",
"w. c #B77568",
"e. c #BE756A",
"r. c #B5796C",
"t. c #B37968",
"y. c #B97C6A",
"u. c #BE7A6E",
"i. c #BE7870",
"p. c #C15E4E",
"a. c #C05F53",
"s. c #C1614F",
"d. c #C36553",
"f. c #C96756",
"g. c #C56956",
"h. c #C96957",
"j. c #C36458",
"k. c #C16659",
"l. c #C26659",
"z. c #C36B5B",
"x. c #CA6C5A",
"c. c #C4705E",
"v. c #CA715E",
"b. c #C16F61",
"n. c #C36E61",
"m. c #CA6E62",
"M. c #C47264",
"N. c #CA7363",
"B. c #C57867",
"V. c #CD7866",
"C. c #C4756A",
"Z. c #CB7368",
"A. c #CA756A",
"S. c #C47A6C",
"D. c #C97E6E",
"F. c #CB7A6C",
"G. c #D07C6D",
"H. c #C27771",
"J. c #C57C72",
"K. c #CA7D72",
"L. c #C47F78",
"P. c #C87F78",
"I. c #BC8070",
"U. c #C58275",
"Y. c #CC8275",
"T. c #C6857C",
"R. c #CB837B",
"E. c #C8897F",
"W. c #D08174",
"Q. c #D1857A",
"!. c #C78780",
"~. c #CB8781",
"^. c #CC8B83",
"/. c #CC8E8B",
"(. c #D18D85",
"). c #D18E8A",
"_. c #CE918D",
"`. c #D29087",
"'. c #D3938C",
"]. c #CF9391",
"[. c #D59792",
/* pixels */
"n n k k k k y f x G 0 & B n r r k y y 1   j =.G _ B Y ~ j 3 k B t ..] 8.V Y A f } E E f q q s s r q r 8 9 X X = = = q q = $ w r ",
"$._ h j j j k Y n D e 3 k k j r y e y r.z 3 0 B G D B n.*.e A ~ ' k k 8.5 Y B t s B z.l u q 8 q 9 q q 9 9 - = = q - 9 9 8 0 9 r ",
"j h t t t r r 3 & e t 3 k l f f ( ~ l #.q.t 0 y f y G y z.n f @.1.t A ] ` l.l y s q k l l s s s r q q q 9 - 9 X = 9 9 q r s 9 ; ",
"3 t k j k j j h t D D e k h k k f G G <.$.<.1.y G ~ G ~ ....0 g.@.<.S k A ( E Y l l f k l s s s k s u r 9 9 9 * = 9 9 f 9 9 q q ",
"t e r j k h 8 +.y f k ( k < k Y Y k G G G ~ 3.3.k.*.k <.D.V.y y @.l l y.I.l Y E j.j.l d f g s s f q q 9 9 9 * 9 - - 9 9 = 9 - 9 ",
"k t y y r r r r y f G G } l G Y ( ( G ( ~ Y ) ~ =.G j e <.n.N.G j.B l 8.q.1.k.E j.a.l s u l s p f 9 q 9 9 9 9 9 - * X q = - * 9 ",
"t j < t j y l l D c G G G G l Y ( ( ( l.) ( ..D *.D G , n l.=.) E l l d.d.=.E l j.l l f 9 q s f s u 9 9 9 9 9 * - - * 9 9 9 9 9 ",
"j B j o , B ' ..G c G Y G f G G Y ~ ) =.=.l.z.) ~ N.m.N y k.f c d.d.l l E k.E j.E j.a.l u 9 = u u u u q q q 9 9 9 - 9 9 X * - 9 ",
"k 8.u.i.$.t 0.9.B G Y G G G ( ( l.G D z.=.l.l.1.l.M.N.M.A d.f w j.c v g d.j.j.j.k.d.g a u u - u u 9 d 9 u 9 9 9 9 9 - = # = * - ",
"k k k k j y 7.<.G ( ( ~ ( ( ( =.@.@.A ( ~ @.z.) ) ~ ( _ ~ ^ v p g E G a.l j.l.l.g.d.g g a u u i u q s u 9 9 9 X 8 * = 9 = $ * = ",
"G G s y f f G B D G ~ ~ c n 3.1.=.n.=.) f ~ l.l.~ y 1.;.) s.v v p.( ( g ( a.a.d.d.d.c v p p i a d d s u u 9 9 8 8 = 8 9 9 q 9 8 ",
"y f r f k f G f D A x ( A D D z.g.( G ) ) =.( 3.A.Y.F.z.^ d.v v d.g ( f ( } j.g.d.g.k.s v p.a g p.d d u d 9 u q 9 - - 9 9 - 9 s ",
"G y y f f e Y G c G ( G ( Y f =.k.v v v v v g.e e Q.c.d.d.a p : g s.( d.v g.g.g.v d.d.c v s.p.p.p.p.i s s u u u i > - > q - > a ",
"c f s p s t y Y G ( ~ Y G G =.G ^ g.g.g.^ G ) 3.*.M.z.^ g.g.v ^ ; p f.d.v ( k.l.d.g.g.g p.g p.d.d d d d f u i u u > > > > u s g ",
"Y g a p g f 0 G G ~ ( G G ^ ( & c g.g.s.g.) g.z.) ) ) G f a d.g.d.q ^ d.k.g.g.g.g.f.g.f.s.p.s.g.a.p.a.l g g i i i u - > u p g s ",
"G l ( g g g c ( ( G k.d.( =.( *.^ s.g.g.g.^ ( l.) ) g.( l.k.l.m.l.l.c g.h.h.k.h.k.d.g s.g a a p.d.d.d.j.a.p.g g i i u a s u u q ",
"k g v v g d.g f c d.g d.c G d.( g.d.f.d.v d.^ g.g.z.z.d.d.z.N.x.z.;.) c d.g v g.x.f.f.p.p.g a p.s.s.d.l d.p.p.i i i u l j.g i j.",
"G f v v g G c f g v g s.( y @.d.f.g.g.f.d.g.d.g.g.g.h.h.c v g.A G D @ % v d.d.f.h.f.a.s.s.g g s.f.f.d.d.a.d.a.p.d i f g j.l l z.",
"0 q f c x w a g c ^ f p ( 3.^ d.f.g.k.g.g.g.d.v g.h.g.d.v p.p.( M.8.9.0.d.g.s.f.f.f.d.d.s.p g d.f.f.d.d.a.p.p.g i a g a a.l } j.",
"Y s y p c v g s f y ~ w x ) g.g.g.g.g.g.g.g.g.g.g.g.g.s.s.s.s.G.W.M.c.~ a s.v s.d.f.s.s.v g p v f.a.f.d.d.a.g a.p.a i p.j.l l x.",
"f ( E d.g g a p f @.n.V.=.( ^ c.x.N.v.M.g.g.h.g.x.g.d.s.v g c v c.N.( x.g.g s.f.h.f.f.f.f.v a s.a.s.( d.d.l j.d.g a g p.j.l l j.",
"A G ( f s.s.a v z.~ M.g.v v p f G ) ) z.V.h.h.g.g.h.g.v v s.v f.s.) N.z.h.v s.v v d.d.s.d.f.d.f.d.f.f l d.l l.d.p.a.d p.a.d l j.",
"Y E A @.f f ( & y x.c.v v g.c v g.) g.) z.h.k.g.g.v.g.v d.d.s.v s.g.3.p f ^ v g.c.s.f s.s.p.d.s.p.p.E l l k.k.v a.g a a.a.d d } ",
"f E B ' B.0.t 9.n ( z.g.g.g.g.c.v.x.x.h.h.x.g.x.g.d.v y f v c v v v ^ A f N.c.v.N.h.v v s.s.s.s.p.d.d.j.j.@.( v g g l d.j.f g l ",
"A 3.J.S.R.^.).!.7.t l.^ G c h.g.g.g.g.g.c.v.x.^ c ;.~ + % z.g.g.v c.N.F.M.v.g.=.^ d.v s.d.g g p a g g v ( z.v g g p.g p.( i g l ",
"8.A 9.R.S.q.J.C.8.*.l.3.0.z.) z.A G ) l.c.z.^ 3.~ x.n.0.*.v c g.c.v.z.c.c.v.V.( f.w f s.v v g v p p p > ^ c.g a g a g s.d.d s g ",
"' A S.*.D f B <.M.n 3 B.W.F.*.8.B.N.1.M.w.b 6.6.8.3.n.K.z.*.*.g.c.g.x.g.g.w g g.d.x y v s.d.d.d.( ( v s N.k.l g ; s a s.d.g a s ",
"1.8.J.0.G ( G n.*.M M 3.Y =.M.A ' M.M.0.6.R.B.c.0.M.=.n.c.z.c.L g.v h.v d.6.f ^ c B.' d.d.s.s.( @.v a ( N.d.q w w ; p.v g g s s ",
"..<.0.8.8.A n.M.8.t.6.L ~ ( ) =.3.M.M.3.M.6 A v.c A ~ ) g.l.g.v d.k.g.x.g.p.g.h.d.( z.d.g.d.g.z.z.v g g.z.g.v v l s g d.g v p a ",
"~ =.=.*.C.z.M.8.B.*.( N.N.G ( z.M.n.C.F.h m c.g.x.z.c.g.g.z.s.g.g.h.g.f.F.v.g.d.s.g.c.f.d.( g.d.v k.v s.k.v.d.a g g i ( s f p s ",
"( z.@.( 0.n.C.H.0.l.g.z.M.A.n...~ z.x.Z.9.N c.g.g.) 0.g.v z.y c d.d.g.g.V.K.d.p.d.f.g.f.d.d.d.d.s.s.s.s.s.g.v g E a s ( l s s s ",
"Y ( ( ) e.n.L.R.K.8.0.M.8.M.M.M.c.) *.z.F.F.d.d.~ 3.A 3.g.g.A ^ g.d.g.h.h.d.g.p.d.g.h.h.f.d.s.f.d.s.s.s.f.f.v k.( d.l g g E g s ",
"( ~ G *.R.R.T.S.S.L.Y.0.C.U.D.C.0.g.) x x.M.M.g.3.*.c.6.L g.^ g.f ^ v d.g.g.h.g.g.g.g.g.s.f.v p d.s.s.s.g.s.p g u g g g g l g s ",
"3.~ ) n.!.!.J.J.Y.C.Y.u.H.R.0.@.M.n.*.b A C.V.k.l.z.) c.g.v d.) n -.d.g.g.g.z.g.d.g.h.h.h.g.g.g.g.g.f.s.f.s.v v g G w a a g g r ",
"~ Y 1.*.H.L.0.M.M.1.Y.J.M.C.6.M.x.3.M.D.2 S =.k.( z.B.^ -.c L M.U.n.k.d.g.g.^ s.g.f.x.h.g.g.g.f.s.d.s.s.g.s.s.g d.g.f p a g i l.",
"B.l.0.' n.K.3.) z.l.M.=.@.8.M.x.z.z.) M.J.0...h.h.3.x ^ z.c.v c.W.V.N.z.g.N.v.f.s.g.f.v s.d.s.^ g.d.s.f.f.s.s.v v g g a g a a v ",
"^.0.0.) 3.n.=.=.z.n.S.1.z.n...3.z.=.z.c.n.F.f.d.z.N e.z.s.g.x.h.v.x.V.v.g.g.c.v.g.f.h.h.d.s.v v f.g g.v.d.d.v v g p.g s.g a i g ",
"L.<.e.z.1.M.( ) *.z.n.=.=.M.G =.z.z.) g.M.) f.^ g.Y.Q.g.g.^ g.g.h.x.x.h.g.f.h.h.g.g.g.f.x.d.s.g.f.s.v z.g.v f.g g g v p.p.p.a a ",
"M.G ;.3.l.z.g.k.^ d.*.( E z.3.n.z.V.g.=.B t g.g.z.z.x.k.g.x.g.g.h.h.v.g.g.s.f.f.h.s.f.x.d.s.s.g.f.f.o . p.s.v d.s.p.s.a g p.g i ",
"8.G ) ( z.l.d.g.d.M.C.3.=.0.<.1.M.v.z.3.A.Z.g.z.z.x.g.g.g.g.h.g.g.h.x.f.f.f.f.f.x.v.g.h.f.h.h.d.d.f.e.+ s f.g a g a a i i a i i ",
"=.<.n.n.M.8.x.l.c.A.C.n.C.N.F.n.B.z.x.n.M.x.z.@.z.c.h.g.h.h.h.g.v g.g.s.v f.f.h.f.z.h.h.g.s.h.s.d.v D.&.v f.g d.v g g g a g a p ",
"( 1.n.8.C.*.M.H.L.Y.Q.Y.D.M.z.z.N.z.n.@.z.@.x.n.M.z.z.g.f.h.h.g.g.g.s.f.g.d.s.h.g.h.g.x.g.d.s.g.v v.3.A v v Y g s.s.g g s g a p ",
"( d.( z.z.3.3.R.S.N.B.D.3.z.n.n.3.Z.x...n...k.x.l.N.v.f.g.x.g.z.N.g.h.f.f.f.f.s.f.x.v.x.g.^ s.h.f.c g.-.g.v G p v s.d.l v g a p ",
"a.( ( @.3.l.g.=.x.k.l.=.z.z.z.z.x.n.z.x.l.x.l.n.N.c.c.g.x.h.h.g.v.g.f.f.f.f.h.f.f.f.h.f.g.g.c x.h.g.s.g.g.s.k.d.v a ( ( a g g g ",
"k.l E @.( x.D.2 $.M.k.^ l.z.M.C.V.x.k.g.z.c.c.V.K.M.z.N.z.x.x.h.g.g.f.d.d.f.h.g.f.f.f.g.g.M.v s.s.g.f.d.x.G ( g.E k.Y d.v g a a ",
"E } d.k.l.M.M.u.D l.k.G ) n.N.B.B.z.g.g.g.N.l.M.m.x.v.z.x.x.g.g.f.f.f.f.f.f.v.h.f.f.x.h.k.s.g.s.d.g.f.f.x.l.k.l.k.E } a.g g g g ",
"d.j.E d.d.k.k H.<.k.M.M.K.G.M.V.n.x.l.m.V.x.z.N.v.N.x.h.v.z.h.x.g.f.f.h.f.x.N.h.x.v.h.s.s.s.d.d.s.f.( c m.h.d.k.h.x.8.l.} g g g ",
"a.} d.d.l.l.x.@.d.M.F.C.A.N.M.N.F.C.V.n.c.h.M.n.N.c.v.x.c.( h.h.f.f.f.h.h.h.x.g.x.A.h.s.d.g.g.d.f.f.( ( ( v d.( d.j.@.l.x.} n.j.",
"f j.k.z.B.C.n.v.x.M.8.3.M.Z.N.M.M.Z.M.m.M.x.n.n.x.v.x.h.z.c.x.g.f.f.h.h.x.x.x.z.2 D x.M.g.z.d.g.g.^ d.g.g.g.f.d.d.k.d.j.k.l.@.@.",
"..l j.l.<.1.x.z.x.M.n.n.n.n.x.M.z.n.A.M.V.c.x.z.z.M.x.g.N.x.x.x.h.h.x.h.x.x.z.v.9.*.x.l.c ) s.d.( V.^ f.g.f.d.s.s.d.( k.z.G ( @.",
"8.Y j.j.) g.l.c.0.B.n.n.n.e.8.A.N.M.A.M.F.F.M.0.3.N.v.g.N.z.g.g.f.h.x.l.M.V.V.z.V.c.h.f.) ) d.^ M.z.d.d.^ g.d.d.v s.g.) ( k.z.1.",
"u.m.j.X.c.z.) 0.e.S.M.J.e.q.M.K.C.C.P.A.F.B.F.Y.M.M.V.N.F.n.N.x.g.x.g.x.m.V.D.v.c.N.g.g.z.g.l.@.x.d.d.g.g.d.v.g.g.g.z.z.=.' M.<.",
"8.h n.d.l.@.M.H.R.U.Y.i.7.i.^.^.L.E.(.K.R.Y.J.K.F.C.G.(.F.Z.A.A.N.v.V.V.Y.Y.Y.V.V.N.3.k.) ( x.x.M.h.k.k.z.d.l.( d.l.z.1.M.j ..B ",
"k 4 @.n.n.C.B.H.U.R.T.U.i.T./.E.^.!./.E.^.'.(.(.R.R.P.P.~.F.A.m.m.m.B.C.D.N.V.A.N.D.z.d.3.l.M.0.+.x.k.l.n.@.) ( d.} =.n.8.k ^ k.",
"S +.8.J.M.M.8.M.B.J.P.T.C.E.^.^._.!./.'.[.).'.'.).~.(.^.~.C.n.M.N.B.C.N.W.W.F.m.N.c.v ^ =.z.M.7 j z.1.@.1.1.1.~ @.n.A ' ( ( ( ~ ",
"j B 1.F.8.1.m.n.x.M.8.u.H.E.!.(.]./.]./.[.).!.!.^.^.).[.R.C.H.M.M.J.F.z.M.Y.K.F.B.B.v d.z.k.@.u.@.n.8.@.n.@.=.Y <.8.&.8.~ f ..*.",
"` k 7.8.l.1.z.1.z.n.M.H.H.L.E.T.].].T./.'.^.~.P.P.P.P.R.U.H.C.K.B.B.A.n.M.n.0.S.C.<.^ d.d.g.=.) d.M.z.k.z.( =.=...B *.M.*.c G *.",
"8.8.h j @.} @.z.3.1.8.M.C.L.T.S.^.T.J.T.U.i.P.J.K.H.P.J.J.H.M.C.S.M.Z.M.K.N.c.M.m.$.) d.k.z.x.s.g.l.k.g.g.*.~ l.} 1.@.' B k G ( ",
"f n.M.] @.z.z.z.x.z.H.M.M.C.C.8.C.H.H.M.B.<.C.M.H.K.J.H.P.S.C.M.n.n.).A.M.F.M.D.B.8.M.z.k.z.s.g.s.g.g.f.g.k.*.~ l @.E ' V l k M.",
"k j k @.} 1.x.l.k.k.Z.Z.M.8.B.S.M.C.S.n.u.B.0.8.n.K.C.C.J.M.C.C.m.@.C.J.=.n.K.A.q.#.z.z.d.k.g.s.g.c c ( d.k.l.E l l =.n.B l } 7.",
"l k B l G =.k.l.h.k.l.z.M.8.n.M.M.0.B.M.B.S.8.8.n.8.M.C.C.C.M.8.Z.F.C.B.M.N.M.M.0.e.G k.g.k.g.f.d.v ^ ^ ( g g g k g Y @.d f k V ",
"k k k k l E k.h.h.@.z.z.n.e.z.n.0.M.1...M.*.M.8.n.n.K.H.C.A.M.M.8.S.R.C.F.N.V.F.A.J.N.l.g.k.x.k.g.) l.( G k l l G Y f k k k l Y ",
"j Y l f l Y z.j.g.l.z.=.n.n.1.@.=.z.k.E ..@.n.B.n.n.e.H.M.n.V.3.l.;.S.Y.M.n.M.A.Z.l.g.B l d.E n.l.E ) ) @.E ( ..k l d l l k Y k ",
"r k k k k k l j.j.E @.~ @.Y ) l.k.d.g.g.k.E Y 8.l.n.e.M.M.8.n.M.z.z.8.J.E.J.M.m.=.G ^ B l ( k.M.1.k.( ( l E ( G G l f l s k k B "
};
