/* XPM */
static char *_9912f6ef4a3486788d4274df6d9ceb61pIUCZW2xLMP2jYF[] = {
/* columns rows colors chars-per-pixel */
"40 40 134 2 ",
"   c #652303",
".  c #6C2706",
"X  c #6A2906",
"o  c #66260A",
"O  c #68260A",
"+  c #662A0D",
"@  c #6C2C0D",
"#  c #722E0E",
"$  c #6E300F",
"%  c #73310E",
"&  c #6C2E11",
"*  c #712F12",
"=  c #792F14",
"-  c #6E3114",
";  c #6E321A",
":  c #733314",
">  c #7B3515",
",  c #743816",
"<  c #7B3916",
"1  c #73351A",
"2  c #793619",
"3  c #76391B",
"4  c #7F3A19",
"5  c #7C3A1A",
"6  c #7C3B1B",
"7  c #7E3A18",
"8  c #7E3C19",
"9  c #7E3E1A",
"0  c #78381C",
"q  c #79381C",
"w  c #79391D",
"e  c #7A391D",
"r  c #783B1C",
"t  c #7B3A1C",
"y  c #7A3B1C",
"u  c #783B1E",
"i  c #783B1F",
"p  c #7B3A1E",
"a  c #7C3B1F",
"s  c #793C1D",
"d  c #7B3C1D",
"f  c #7D3C1C",
"g  c #7E3C1C",
"h  c #7E3D1D",
"j  c #7F3D1D",
"k  c #7F3F1C",
"l  c #7D3C1E",
"z  c #7C3D1E",
"x  c #7F3E1E",
"c  c #7C3A1C",
"v  c #763821",
"b  c #793C20",
"n  c #7A3D20",
"m  c #7A3D21",
"M  c #7B3E21",
"N  c #7B3E22",
"B  c #7C3C20",
"V  c #7D3C20",
"C  c #7D3D21",
"Z  c #7C3F22",
"A  c #7E3E22",
"S  c #7E3D21",
"D  c #7C401E",
"F  c #7D4023",
"G  c #7D4024",
"H  c #7F4225",
"J  c #7F4321",
"K  c #803717",
"L  c #813815",
"P  c #823916",
"I  c #813B19",
"U  c #803B1A",
"Y  c #813D1A",
"T  c #813C1B",
"R  c #823C1A",
"E  c #833D1B",
"W  c #823E1B",
"Q  c #853C19",
"!  c #823D1C",
"~  c #803E1E",
"^  c #843E1C",
"/  c #853F1D",
"(  c #823C1D",
")  c #883F1F",
"_  c #803F21",
"`  c #813E21",
"'  c #893F24",
"]  c #82401E",
"[  c #87411D",
"{  c #85411E",
"}  c #87411F",
"|  c #84421F",
" . c #86421F",
".. c #84401F",
"X. c #89401D",
"o. c #8A411E",
"O. c #8B421F",
"+. c #804120",
"@. c #824020",
"#. c #834121",
"$. c #824123",
"%. c #864120",
"&. c #874320",
"*. c #874221",
"=. c #844222",
"-. c #854323",
";. c #844421",
":. c #854521",
">. c #804024",
",. c #814125",
"<. c #824226",
"1. c #814427",
"2. c #864424",
"3. c #874525",
"4. c #854123",
"5. c #8C4320",
"6. c #884421",
"7. c #894423",
"8. c #884623",
"9. c #8D4421",
"0. c #8A4524",
"q. c #894724",
"w. c #8B4625",
"e. c #884727",
"r. c #894727",
"t. c #894224",
"y. c #814428",
"u. c #824528",
"i. c #864529",
"p. c #8B4629",
"a. c #85482B",
"s. c #8A4828",
"d. c #8D482B",
"f. c #904B2E",
/* pixels */
"1 1 - - ; 1 i b b 1 1 ; 1 1 1 3 2 2 : 2 , 2 % @ $ % # @ : @ @ $ + $ $ - - , : : ",
"& & + & & - ; ; G N b i 3 3 1 i s 6 6 6 6 c 2 : < c c , < c < < 3 3 3 3 3 , , 2 ",
"3 3 3 3 1 i s s u.u.<.A b b G F i 2 3 6 c c , , , 2 , 2 : , , : s c 3 3 , : : : ",
"- ; - - ; - , 1 - - - & - & - - , , , , 1 2 , - : - & : & : & & - , , , , - : - ",
"2 2 q 2 3 3 2 2 : 1 1 1 & & & & 1 - - ; 3 1 , ; 1 1 ; 3 1 1 - ; $ ; , s s 6 c 7 ",
"G <.<.>.<.>.C b C <.4.C 0 1 : 2 - & & - ; ; ; - - - - - & & & & $ - 6 s s q g >.",
": : : : : : @ @ @ : 2 : @ O O @ & + + & - - ; - + & + + + + + + $ : , : : : < D ",
"@ @ : : * @ O o @ & 2 2 : : : c 1 - ; ; ; 3 3 3 1 1 3 ; 3 ; ; , c 6 < % @ @ : 8 ",
"2 2 : < 2 7 7 g c : : < c c 2 3 b 1 1 s b i 1 i 3 1 1 1 1 b u.a.| < X     X < ] ",
": : : : : : 2 , 2 @ # : > : % , 0 - & - : & & - ; ; - - - 1 0 i : % X     X % , ",
"g 8 8 8 g g g g :.] ( ;.s.3.:.a.<.q c q b 2 2 3 D 6 s 6 q 3 0 q D D 8 8 < D ] [ ",
"-.-.-.-.-.-.-./ 7 : : 6 g g T ( r.3.{ >.-.<.-.-.;.>.>.{ >.( g g :. .:. .q.:.[ [ ",
"< 7 7 U 7 7 < > -.U U ' 7.*.9.w.7 7 > = > E E E 7 U L U U 7 7 < < > < < < < > < ",
"= : > > > > > > # . . # # # # # > % % % > U E L Q ^ / / ^ ^ ^ L 7 7 < < < 7 L U ",
"> > 7 U U U 7 < U < < U / U U ( P Q P L L O.9.X.O.5.O.) X.) X.X.{ { / / [ [ ' X.",
"< L ( { -./ ` / *.E U / *./ / ` ] [ P > 7 -.w./ / U U < < > < < > > < < < > 2 K ",
"2 > 2 2 2 > 2 > * * * * # @ # * % % $ @ + + $ + & + + & & ; ; ; = = = = 2 K = = ",
"p.p.d.d.d.d.p.d.d.t.t.' ' ( 2 * ; - - , 1 1 3 v 3 ; ; ; ; ; ; 1 * = = ( ( ' ' ' ",
"' ' t.t.' t.' ' f.d.' t.t.' 2 @ - - ; 1 1 1 3 , v 1 1 ; ; ; v ; * = > 2 ` ' ' ' ",
"2 2 K q 2 0 2 2 q 2 2 2 ( q = @ - - - - ; - - - ; 1 ; ; ; ; ; v 1 > : 2 K ` ' B ",
"q q T ` q g q q * * : 2 : 2 2 0 , 1 , 3 , 1 ; ; ; 1 ; ; ; v v v C g c 7 q g 3 1 ",
"g q q V ` T ( q = 2 2 2 : > 2 g ; , - , ; 1 3 3 0 1 ; 1 v v v v J 3 q s g g s D ",
": : > 1 : : : : & * * * : : : & , $ $ + $ $ - ; 1 * ; ; ; ; v 1 , - : : 3 3 3 , ",
"* * : * : : : * @ @ O @ : 2 @ o , , - $ + + $ - + & + + + + + & + o o o + @ + + ",
"* : > s g >.g g g C C C g q c g c c , , : - @ @ & + O @ & ; ; * , - ; , 3 - $ $ ",
"2 2 c q C C g C c c g q 2 c 3 c 2 < , , : : $ O @ ; B 1 & O * 1 ; $ $ $ - - , D ",
"* : - : : , , : : , 2 , : : , 2 : , < < < , 2 : & : g 1 @ O & ; 3 : - - $ + $ - ",
": - : @ @ @ : & : : , , , : 2 3 < D ] D ] g c < 2 * & * 2 V ; * 3 , 3 s 3 , + $ ",
"s 3 3 3 2 3 3 3 , , 3 3 , 3 3 < < , < D < , % % g : * = v ` v = * - 2 D <.g 0 g ",
", , : : , ; , , - : , - - $ , , % % % % $ @ @ @ * 1 0 ; = O * ; : @ @ : : : : 0 ",
"+ @ - - - : - - - ; - - $ $ $ , % % % % % : : > # * = * & @ & * : : @ : @ O . @ ",
"- - 3 s s J s D r D D r 3 3 < < D < , > > 7 E >.7 * # & ` ' ` ; - * 2 _ C 2 ; ; ",
"$ $ , D | D D D D D 6 3 D D D J 4.T g T g 2 1 2 2 O   2 ` = * 2 * @ @ & * & * 1 ",
", : , , , % , : : $ $ $ % , % : 2 * 1 2 q 1 = 2 2 * * 2 q * * > ; * & ; ; + o O ",
"D 6 : $ @ @ @ : , % % % % % : $ * * = ` ` ` ` ` q ` ` ` q 2 q q B B B ` _ _ A ' ",
"8 < % $ @ # : > < , : : > , : : * * 1 2 T q q q 2 ` ` 2 2 q ( * * * * 1 0 A _ 4.",
"7 < > # # % > > > > > % : : % # * * @ @ @ * * * * * * @ # 2 1   v 2 ; & @ * ; 2 ",
"/ { / ( U E U 2 U K < U ^ E L < ( T 2 * * : 2 2 2 2 2 * 2 ` T * p.i.A = ; 2 B ` ",
"*.) ' ) ) / Q U ) / ' ' t.t.X./ ` t.4.Q T ' ' ` Q T ` Q ' t.` ( 2 2 2 * * 2 q 2 ",
"> K L K K K K K K > K K Q Q P < > 2 T 2 2 T Q < 2 > 2 2 2 * > 2 1 ` q 2 2 ( 2 * "
};
