/* XPM */
static char *_59339abcdcd4e5db5e5a507519290ffw6dVygjQhlSdJOLn[] = {
/* columns rows colors chars-per-pixel */
"40 40 12 1 ",
"  c black",
". c #200000",
"X c #9F0000",
"o c #DF0000",
"O c red",
"+ c #400000",
"@ c #EF0000",
"# c #300000",
"$ c #A00000",
"% c #900000",
"& c #E00000",
"* c #F00000",
/* pixels */
"                                        ",
"                                        ",
"                                        ",
"                                        ",
"                                        ",
"                                        ",
"                                        ",
"                                        ",
"                                        ",
"                                        ",
"                                        ",
"                                        ",
"                                        ",
"                                        ",
"                 .XoOoX.                ",
"                +@OOOOO@#               ",
"               .@OOOOOOO@.              ",
"               $OOOOOOOOO%              ",
"               &OOOOOOOOOo              ",
"               OOOOOOOOOOO              ",
"               &OOOOOOOOO&              ",
"               $OOOOOOOOO%              ",
"               .*OOOOOOO*.              ",
"                #*OOOOO*#               ",
"                 .%&O&%.                ",
"                                        ",
"                                        ",
"                                        ",
"                                        ",
"                                        ",
"                                        ",
"                                        ",
"                                        ",
"                                        ",
"                                        ",
"                                        ",
"                                        ",
"                                        ",
"                                        ",
"                                        "
};
